<?xml version="1.0" standalone="no"?>
<!DOCTYPE svg PUBLIC "-//W3C//DTD SVG 20010904//EN"
 "http://www.w3.org/TR/2001/REC-SVG-20010904/DTD/svg10.dtd">
<svg version="1.0" xmlns="http://www.w3.org/2000/svg"
 width="744.000000pt" height="1280.000000pt" viewBox="0 0 744.000000 1280.000000"
 preserveAspectRatio="xMidYMid meet">
<g transform="translate(0.000000,1280.000000) scale(0.100000,-0.100000)"
fill="#000000" stroke="none">
<path d="M1857 11856 l-1857 -931 0 -4525 0 -4525 1860 -930 1860 -930 1860
930 1860 930 0 4525 0 4525 -1857 930 c-1022 511 -1860 930 -1863 931 -3 0
-841 -418 -1863 -930z m-866 -1545 c343 -170 1112 -550 1708 -845 596 -295
1087 -536 1092 -536 7 0 631 307 2593 1279 379 188 692 341 696 341 4 0 11 -7
14 -16 7 -19 8 -8411 0 -8439 -4 -16 -412 -224 -1690 -863 l-1684 -842 -353
176 c-193 97 -355 181 -359 188 -4 6 -8 346 -9 756 l-1 745 -861 430 c-474
236 -868 431 -874 433 -10 3 -13 -148 -13 -732 0 -548 -3 -737 -12 -742 -6 -4
-204 89 -449 212 -326 162 -439 223 -443 239 -8 28 -7 8490 0 8509 3 9 9 16
14 16 4 0 288 -139 631 -309z m1142 -8002 c287 -144 525 -266 529 -273 4 -6 8
-235 8 -509 0 -454 -1 -498 -17 -504 -17 -7 -1018 487 -1054 520 -18 17 -19
36 -19 507 0 268 3 495 6 504 3 9 10 16 15 16 5 0 244 -118 532 -261z"/>
<path d="M720 9141 l0 -716 520 -261 520 -261 0 716 0 716 -520 261 -520 261
0 -716z m535 71 l170 -87 3 -328 c2 -275 0 -328 -12 -333 -8 -3 -92 34 -188
83 l-173 88 -3 320 c-1 176 0 325 3 332 2 7 10 13 17 13 7 -1 90 -40 183 -88z"/>
<path d="M6198 9596 l-518 -261 0 -716 0 -716 520 261 520 261 0 718 c0 394
-1 716 -2 716 -2 -1 -236 -119 -520 -263z m187 -631 l0 -330 -173 -88 c-96
-49 -180 -86 -188 -83 -12 5 -14 58 -12 333 l3 328 170 87 c94 48 177 86 185
85 13 -2 15 -47 15 -332z"/>
<path d="M2491 8253 l1 -718 511 -255 c281 -140 515 -256 519 -258 5 -2 8 320
7 715 l-1 718 -511 255 c-281 140 -515 257 -519 258 -4 2 -8 -320 -7 -715z
m522 81 c94 -48 175 -92 179 -98 11 -17 10 -654 -2 -661 -10 -6 -351 161 -362
179 -9 13 -11 627 -2 650 3 9 8 16 10 16 2 0 82 -39 177 -86z"/>
<path d="M4423 8711 l-511 -256 -1 -718 c-1 -395 2 -717 7 -715 4 2 238 118
519 258 l511 255 1 718 c1 394 -2 716 -6 716 -5 -1 -238 -117 -520 -258z m191
-307 c7 -20 8 -611 0 -639 -4 -15 -55 -46 -180 -108 -96 -48 -179 -85 -185
-82 -11 7 -12 644 -1 661 6 10 338 182 353 183 4 1 10 -6 13 -15z"/>
<path d="M721 7013 l1 -718 511 -255 c281 -140 515 -256 519 -258 4 -2 8 320
7 715 l-1 718 -511 255 c-282 140 -515 257 -519 258 -5 2 -8 -320 -7 -715z
m522 81 c94 -48 175 -92 179 -98 11 -16 9 -638 -1 -656 -8 -11 -38 0 -171 65
-89 44 -170 88 -181 98 -18 17 -19 33 -19 332 0 282 3 345 16 345 2 0 82 -39
177 -86z"/>
<path d="M6193 7471 l-511 -256 -1 -718 c-1 -395 3 -717 7 -715 4 2 238 118
519 258 l511 255 1 718 c1 394 -2 716 -6 716 -5 -1 -238 -117 -520 -258z m191
-307 c3 -9 6 -157 6 -329 0 -299 -1 -315 -19 -332 -11 -10 -92 -54 -181 -98
-133 -65 -163 -76 -171 -65 -10 18 -12 640 -1 656 6 10 338 182 353 183 4 1
10 -6 13 -15z"/>
<path d="M2490 6128 l0 -713 520 -261 520 -262 0 717 0 716 -514 258 c-282
141 -516 257 -520 257 -3 0 -6 -321 -6 -712z m535 74 l170 -87 3 -328 c2 -296
1 -328 -14 -334 -21 -8 -330 144 -350 172 -11 16 -14 80 -14 326 0 169 3 314
6 323 3 9 11 16 18 16 6 -1 88 -40 181 -88z"/>
<path d="M4418 6581 l-508 -256 0 -716 0 -717 520 262 520 261 0 713 c0 564
-3 712 -12 711 -7 -1 -241 -117 -520 -258z m196 -307 c3 -9 6 -154 6 -323 0
-246 -3 -310 -14 -326 -20 -28 -329 -180 -350 -172 -15 6 -16 38 -14 334 l3
328 170 87 c94 48 175 87 181 88 7 0 15 -7 18 -16z"/>
<path d="M720 4887 l0 -712 520 -262 520 -261 0 716 0 717 -514 258 c-283 141
-517 257 -520 257 -3 0 -6 -321 -6 -713z m529 79 c93 -47 171 -92 175 -101 3
-9 6 -158 6 -331 0 -283 -2 -315 -16 -321 -17 -6 -312 134 -346 165 -16 14
-18 43 -18 337 0 177 3 325 7 328 11 12 20 8 192 -77z"/>
<path d="M6188 5341 l-508 -256 0 -717 0 -716 520 261 520 262 0 712 c0 565
-3 713 -12 712 -7 -1 -241 -117 -520 -258z m200 -620 c2 -272 0 -327 -12 -340
-25 -27 -332 -175 -350 -168 -14 6 -16 39 -16 325 0 239 3 322 13 334 16 21
327 178 347 175 13 -2 15 -47 18 -326z"/>
<path d="M2491 4003 l0 -718 510 -255 c281 -140 514 -256 520 -258 5 -2 9 271
9 712 l0 716 -512 257 c-282 142 -516 260 -520 261 -5 2 -8 -320 -7 -715z
m701 -17 c4 -6 8 -156 8 -334 0 -266 -2 -324 -14 -328 -19 -7 -352 161 -360
181 -12 31 -7 640 5 652 9 9 55 -10 183 -74 94 -47 174 -91 178 -97z"/>
<path d="M4423 4458 l-513 -259 0 -715 c0 -441 4 -714 9 -712 6 1 239 118 520
258 l510 255 0 718 c1 394 -2 716 -6 716 -5 -1 -239 -118 -520 -261z m195
-613 c1 -170 0 -320 -3 -333 -4 -17 -44 -42 -176 -108 -94 -47 -178 -83 -185
-80 -12 4 -14 62 -14 328 0 178 4 328 8 334 12 19 326 173 347 171 19 -2 20
-10 23 -312z"/>
</g>
</svg>
